<?xml version="1.0" standalone="no"?>
<!DOCTYPE svg PUBLIC "-//W3C//DTD SVG 1.1//EN" "http://www.w3.org/Graphics/SVG/1.1/DTD/svg11.dtd" >
<svg xmlns="http://www.w3.org/2000/svg" xmlns:xlink="http://www.w3.org/1999/xlink" version="1.1">
<metadata>
Created by FontForge 20170910 at Sat Jan 10 16:34:27 1998
 By Jimmy Wärting
Copyright 1998 Lisa D. Jenkins; based on "Xanadu" from the Universal motion picture (1980).
</metadata>
<defs>
<font id="Xanadu" horiz-adv-x="550" >
  <font-face 
    font-family="Xanadu"
    font-weight="400"
    font-stretch="normal"
    units-per-em="1000"
    panose-1="0 0 4 0 0 0 0 0 0 0"
    ascent="804"
    descent="-196"
    x-height="804"
    cap-height="804"
    bbox="0 -196.058 1012 804"
    underline-thickness="20"
    underline-position="-143"
    unicode-range="U+0020-007A"
  />
<missing-glyph horiz-adv-x="500" 
d="M63 0v800h375v-800h-375zM125 63h250v675h-250v-675z" />
    <glyph glyph-name=".notdef" horiz-adv-x="500" 
d="M63 0v800h375v-800h-375zM125 63h250v675h-250v-675z" />
    <glyph glyph-name=".null" horiz-adv-x="0" 
 />
    <glyph glyph-name="nonmarkingreturn" horiz-adv-x="500" 
 />
    <glyph glyph-name="space" unicode=" " horiz-adv-x="500" 
 />
    <glyph glyph-name="exclam" unicode="!" horiz-adv-x="211" 
d="M134 119l-129 136v418h42v122l87 -64v-612zM134 -73h-129v133h129v-133z" />
    <glyph glyph-name="quotedbl" unicode="&#x22;" horiz-adv-x="401" 
d="M321 302l-128 135v233h42v130l86 -60v-438zM133 302l-128 135v233h41v130l87 -60v-438z" />
    <glyph glyph-name="numbersign" unicode="#" horiz-adv-x="1045" 
d="M1012 185h-333v-381l-130 137v242h-131v-379l-131 137v242h-142l-136 131h277v84h-150l-136 131h286v152h43v123l88 -64v-210h131v151h42v123l89 -64v-209h193l136 -131h-328v-85h196zM548 315v83h-130v-83h130z" />
    <glyph glyph-name="dollar" unicode="$" horiz-adv-x="528" 
d="M460 -61l-128 -135v9q0 11 -3 16q-14 -25 -99 -25q-19 0 -51 7q-38 9 -47 18q-5 -9 -4 -25l-127 135v179l121 -117v265q0 10 16 34l-138 87v287h39q7 24 4 54q71 76 187 76q128 0 187 -76q0 -10 1 -50q13 -4 42 -4v-66h-129l-1 6q0 4 2 11t2 11q0 13 -19 22v-257
q57 -26 145 -146v-316zM301 669q-48 18 -69 18q-48 0 -102 -39v-220q47 10 66 9q45 97 105 232zM330 -48v273q0 33 -65 77q-135 -323 -135 -328q0 -24 40 -42q35 -15 62 -15t51 11.5t47 23.5z" />
    <glyph glyph-name="percent" unicode="%" horiz-adv-x="444" 
d="M129 605h-128v128h128v-128zM381 689q-248 -709 -308 -877l-69 203q86 223 258 670q4 0 12 -2.5t13 -2.5q4 0 9 2v109q28 -20 83 -63q2 -38 2 -39zM374 -70h-128v128h128v-128z" />
    <glyph glyph-name="quotesingle" unicode="'" horiz-adv-x="209" 
d="M129 302l-129 135v233h42v130l87 -60v-438z" />
    <glyph glyph-name="parenleft" unicode="(" horiz-adv-x="311" 
d="M254 678h-122v-747h118l-125 -127l-125 133v734l125 133z" />
    <glyph glyph-name="parenright" unicode=")" horiz-adv-x="330" 
d="M254 -63l-125 -133l-125 126h118v747h-122l125 127l129 -133v-734z" />
    <glyph glyph-name="plus" unicode="+" horiz-adv-x="557" 
d="M510 591q-39 -43 -122 -124q-4 -1 -9 -1q-6 0 -19 1.5t-19 1.5q-11 0 -22 -3v-210q-44 41 -129 127q-1 8 -1 79q-18 7 -63 5l-122 123h188v80h43v130l87 -60v-149h188z" />
    <glyph glyph-name="comma" unicode="," horiz-adv-x="215" 
d="M133 -196l-128 136v120h128v-256z" />
    <glyph glyph-name="hyphen" unicode="-" horiz-adv-x="580" 
d="M510 585l-131 -124h-244l-131 124h506z" />
    <glyph glyph-name="hyphen" unicode="&#x2010;" horiz-adv-x="580" 
d="M510 585l-131 -124h-244l-131 124h506z" />
    <glyph glyph-name="period" unicode="." horiz-adv-x="221" 
d="M133 -70h-128v129h128v-129z" />
    <glyph glyph-name="slash" unicode="/" horiz-adv-x="433" 
d="M383 735q-1 -21 -2 -61q-47 -143 -311 -870l-70 207q46 144 124 344q68 170 135 340q19 -4 25 -4t14 1v112q29 -21 85 -64v-5z" />
    <glyph glyph-name="zero" unicode="0" horiz-adv-x="535" 
d="M460 -61l-128 -135v9q0 10 -3 16q-14 -25 -99 -25q-20 0 -51 7q-37 8 -47 18q-5 -10 -4 -25l-128 135v735h39q4 17 4 54q43 42 85 59t102 17q120 0 187 -76q-1 -13 0 -25q1 -15 1 -20v-5q13 -5 42 -4v-735zM322 656q-59 31 -90 31q-48 0 -101 -39v-417zM330 -48v425
l-192 -425q38 -35 94 -35q24 0 51 11q23 12 47 24z" />
    <glyph glyph-name="one" unicode="1" horiz-adv-x="359" 
d="M281 -196l-129 136v667h-152l195 197l86 -68v-932z" />
    <glyph glyph-name="two" unicode="2" horiz-adv-x="528" 
d="M485 -66l-135 -130h-211l-135 135v360q0 12 39.5 51t54.5 47q81 39 140 39q31 0 95 -17v227q-50 41 -101 41q-32 0 -64 -15q-38 -18 -38 -46q0 -9 4 -18h-133v66h42q9 26 4 54q71 76 187 76q58 0 93 -11q54 -17 94 -65q2 -5 1 -50q14 -5 42 -4v-237q-34 -36 -67 -72
q-55 -55 -69 -55q-15 0 -44 6.5t-43 6.5q-67 0 -107 -49v-340h351z" />
    <glyph glyph-name="three" unicode="3" horiz-adv-x="534" 
d="M460 -61l-128 -135v5q0 8 -4 16q-32 -21 -98 -21q-69 0 -98 21q-4 -4 -4 -21l-124 124l109 48q58 -55 115 -55q61 0 103 45v275q-45 47 -125 45v124q50 2 67 8q27 8 58 38v190q-44 41 -99 41q-34 0 -66 -16q-39 -19 -39 -49q0 -7 2 -14h-128v66h38q5 13 4 28q-1 18 0 26
q50 42 86 58q43 18 101 18q104 0 186 -76q2 -15 2 -50q12 -4 42 -4v-232q0 -8 -30.5 -47.5t-40.5 -48.5q71 -77 71 -96v-311z" />
    <glyph glyph-name="four" unicode="4" horiz-adv-x="527" 
d="M449 -196l-129 136v368h-184l-136 128l363 368l86 -68v-932zM318 440v183l-183 -183h183z" />
    <glyph glyph-name="five" unicode="5" horiz-adv-x="526" 
d="M464 608h-133q4 9 4 18q0 28 -39 46q-32 15 -64 15q-44 0 -103 -41v-227q76 17 97 17q67 0 141 -40q13 -6 53 -46t40 -50v-361l-128 -135v9q0 10 -3 16q-15 -25 -99 -25q-20 0 -51 7q-37 8 -47 18q-5 -10 -4 -25l-127 135v179l68 -62q48 -44 59 -64q1 -4 2 -27v-7
q54 -41 102 -41q42 0 99 37v320q-43 49 -107 49q-46 0 -84 -28.5t-54 -71.5q-29 28 -86 85v366h39q3 11 3 28.5t1 25.5q59 44 91 58q41 18 96 18q125 0 187 -76q1 -4 1 -50q19 -6 46 0v-70z" />
    <glyph glyph-name="six" unicode="6" horiz-adv-x="526" 
d="M464 608h-133q4 9 4 18q0 28 -39 46q-32 15 -64 15q-44 0 -103 -41v-227q77 17 97 17q67 0 141 -40q13 -6 53 -46t40 -50v-361l-128 -135v9q0 10 -3 16q-14 -25 -99 -25q-20 0 -51 7q-37 8 -47 18q-5 -9 -4 -25l-128 135v735h39q7 23 4 54q45 41 86.5 58.5t100.5 17.5
q120 0 187 -76q1 -11 1 -45v-5q19 -6 46 0v-70zM330 -48v324q-44 47 -106 47q-28 0 -50 -11t-44 -23v-333q52 -39 102 -39q25 0 50 11.5t48 23.5z" />
    <glyph glyph-name="seven" unicode="7" horiz-adv-x="527" 
d="M484 743q0 -45 -4 -55q-290 -727 -369 -884l-111 106l325 759h-325v69l62 66h342q7 0 27 -18q30 -28 53 -43z" />
    <glyph glyph-name="eight" unicode="8" horiz-adv-x="530" 
d="M456 -61l-128 -135v8q0 11 -4 17q-46 -25 -96 -25q-34 0 -96 25q-5 -9 -4 -25l-128 135v310q0 9 30.5 49.5t40.5 47.5q-71 74 -71 97v231h39q0 18 4 54q82 76 185 76q102 0 184 -76q4 -5 3 -24q-1 -32 -1 -26q12 -4 42 -4v-232q0 -8 -30.5 -47.5t-40.5 -48.5
q71 -77 71 -96v-311zM326 454v194q-12 15 -44 27t-54 12q-58 0 -98 -39v-194q47 -43 98 -43q24 0 53.5 12.5t44.5 30.5zM326 -48v290q-47 43 -98 43q-49 0 -98 -43v-290q23 -13 45.5 -24t52.5 -11q27 0 51 11.5t47 23.5z" />
    <glyph glyph-name="nine" unicode="9" horiz-adv-x="537" 
d="M462 -60l-129 -136v5q0 8 -4 16q-32 -21 -98 -21q-69 0 -99 21q-4 -7 -3 -21l-125 125l110 47q57 -54 115 -54q61 0 103 45v216q-76 -17 -97 -17q-69 0 -141 39q-16 8 -55 47t-39 51v370h39q10 31 4 55q71 76 188 76q130 0 187 -77l2 -50q14 -4 42 -4v-733zM332 313v334
q-53 39 -103 39q-58 0 -99 -39v-321q45 -47 107 -47q33 0 53 11t42 23z" />
    <glyph glyph-name="colon" unicode=":" horiz-adv-x="217" 
d="M133 123h-128v128h128v-128zM133 -66h-128v129h128v-129z" />
    <glyph glyph-name="semicolon" unicode=";" horiz-adv-x="210" 
d="M133 119h-128v128h128v-128zM133 -196l-128 135v120h128v-255z" />
    <glyph glyph-name="equal" unicode="=" horiz-adv-x="583" 
d="M519 673l-131 -124h-244l-131 124h506zM519 522l-131 -124h-244l-131 124h506z" />
    <glyph glyph-name="question" unicode="?" horiz-adv-x="525" 
d="M460 303l-85 -84q-40 96 -136 100q-33 1 -63 -11q-33 -13 -44 -38v-150q-36 33 -72 67q-57 55 -57 67q0 4 11.5 38t13.5 38q53 101 208 101q31 0 94 -17v225q-49 40 -100 40q-32 0 -63 -15q-38 -18 -38 -45q0 -9 3 -18h-131v66h41q3 8 5 53q74 76 185 76q108 0 185 -76
q2 -3 2 -50q14 -4 41 -4v-363zM132 -71h-127v132h127v-132z" />
    <glyph glyph-name="A" unicode="A" 
d="M474 -60l-131 -136v710l-106 -168l-107 168v-710l-130 136v738h39q8 25 8 46q65 80 192 80q50 0 106 -19q66 -24 86 -62q3 -6 1 -42q13 -4 42 -4v-737zM344 527v116q-44 48 -107 48q-67 0 -106 -48v-116h213z" />
    <glyph glyph-name="B" unicode="B" horiz-adv-x="441" 
d="M367 70q0 -92 -67 -177q-71 -89 -161 -89q-34 20 -139 124v749h42v127h86q95 0 169 -89q70 -85 70 -181q0 -145 -127 -230q127 -94 127 -234zM253 536q0 54 -35 92q-32 35 -86 49v-277q52 4 86.5 43.5t34.5 92.5zM253 72q0 54 -35 92q-32 35 -86 49v-277q52 4 86.5 44
t34.5 92z" />
    <glyph glyph-name="C" unicode="C" horiz-adv-x="509" 
d="M467 675l-91 -138q1 65 -38 110t-103 45q-61 0 -106 -49v-682q37 -44 102 -44q63 0 103.5 45t37.5 109l90 -138q-20 -34 -61 -69q-65 -54 -71 -60q2 6 2 10q0 7 -7 7q-16 0 -47 -8.5t-47 -8.5q-67 0 -100 21q-4 -7 -3 -21l-128 135v731h38q8 35 8 58q72 76 191 76
q70 0 131 -34.5t99 -94.5z" />
    <glyph glyph-name="D" unicode="D" horiz-adv-x="461" 
d="M389 590l-2 -549q-1 -86 -83 -160q-78 -71 -166 -77l-138 136v737h42v127h140q55 0 131 -79.5t76 -134.5zM260 37v488q0 65 -33 109t-96 56v-772q39 1 84 40.5t45 78.5z" />
    <glyph glyph-name="E" unicode="E" horiz-adv-x="523" 
d="M483 -65l-136 -131h-211l-136 136v738l52 -1q-2 20 -9 59l40 38q32 30 37 30h289q13 0 74 -64v-66h-352v-147h352l-136 -130h-216v-462h352z" />
    <glyph glyph-name="F" unicode="F" horiz-adv-x="507" 
d="M483 527l-136 -130h-217v-593l-130 136v738h39q10 31 4 58q2 1 41 37q32 31 36 31h289q10 0 74 -64v-66h-352v-147h352z" />
    <glyph glyph-name="G" unicode="G" horiz-adv-x="533" 
d="M467 675l-91 -138q1 65 -38 110t-103 45q-61 0 -106 -49v-686q54 -40 102 -40q42 0 98 36v231q-33 10 -55 5q-37 34 -120 118h304v-368l-128 -135l1 9q0 10 -4 16q-14 -25 -98 -25q-20 0 -51 7q-36 8 -47 18q-5 -10 -3 -25l-128 135v731h38q8 27 5 58q61 76 194 76
q70 0 131 -34.5t99 -94.5z" />
    <glyph glyph-name="H" unicode="H" 
d="M474 -60l-131 -136v710l-106 -168l-107 168v-710l-130 136v737h42v127l88 -64v-213h214v213l87 64v-123q17 -6 43 -4v-737z" />
    <glyph glyph-name="I" unicode="I" horiz-adv-x="208" 
d="M130 -196l-130 137v740h43v123l87 -64v-936z" />
    <glyph glyph-name="J" unicode="J" horiz-adv-x="454" 
d="M378 -60l-138 -136h-12q-70 -2 -143 65q-70 64 -85 135l117 119v-73q0 -48 40.5 -90t88.5 -43v760h44v127l88 -64v-800z" />
    <glyph glyph-name="K" unicode="K" horiz-adv-x="435" 
d="M365 -60l-129 -136v304l-110 116v-415l-126 131v737h42v127l86 -68v-352l107 116v240l83 64v-129h47v-180l-180 -189l180 -192v-174z" />
    <glyph glyph-name="L" unicode="L" horiz-adv-x="498" 
d="M483 -65l-136 -131h-211l-136 136v737h42v127l88 -64v-805h353z" />
    <glyph glyph-name="M" unicode="M" horiz-adv-x="580" 
d="M504 -60l-132 -136v714l-118 -189l-124 189v-714l-130 136v737h43v127q39 -20 116 -61q44 -92 91 -199q52 83 92 196q40 21 119 64v-123q18 -6 43 -4v-737z" />
    <glyph glyph-name="N" unicode="N" horiz-adv-x="584" 
d="M508 -60l-129 -136v548l-249 251v-799l-130 136v738h39q2 10 4 62q20 18 85 64l250 -248v184l88 64v-123q13 -4 42 -4v-737z" />
    <glyph glyph-name="O" unicode="O" horiz-adv-x="535" 
d="M460 -61l-128 -135v9q0 10 -3 16q-14 -25 -99 -25q-20 0 -51 7q-37 8 -47 18q-5 -9 -4 -25l-128 135v735h39q0 1 5 10t5 20q0 9 -2 21q22 37 85 60q52 19 98 19q125 0 187 -76q3 -8 2 -23q-1 -28 -1 -23v-4q13 -4 42 -4v-735zM330 -48v696q-13 16 -43.5 27.5t-54.5 11.5
q-48 0 -102 -39v-692q52 -39 102 -39q25 0 50 11.5t48 23.5z" />
    <glyph glyph-name="P" unicode="P" horiz-adv-x="419" 
d="M367 534q0 -103 -65.5 -175.5t-167.5 -91.5l-8 -6v-457l-126 132v741h42v127h86q93 0 168 -90q71 -86 71 -180zM253 536q0 54 -35 92q-32 35 -86 49v-277q52 4 86.5 43.5t34.5 92.5z" />
    <glyph glyph-name="Q" unicode="Q" horiz-adv-x="536" 
d="M460 -61l-128 -135v9q0 10 -3 16q-14 -25 -99 -25q-20 0 -51 7q-37 8 -47 18q-5 -9 -4 -25l-128 135v735h39q3 16 4 54q70 76 187 76q59 0 93 -11q51 -16 94 -65q-1 -15 0 -29q1 -18 1 -21q13 -4 42 -4v-735zM330 47v601q-13 16 -44 27.5t-54 11.5q-47 0 -102 -39v-692
q52 -39 102 -39q7 0 20.5 2.5t19.5 3.5l-42 43v177z" />
    <glyph glyph-name="R" unicode="R" horiz-adv-x="435" 
d="M366 535q0 -81 -45 -147.5t-119 -102.5l163 -171v-174l-129 -136v304l-110 116v-415l-126 131v737h42v127h86q92 0 166 -90q72 -85 72 -179zM252 537q0 54 -35 92q-32 35 -86 49v-277q52 5 86.5 44.5t34.5 91.5z" />
    <glyph glyph-name="S" unicode="S" horiz-adv-x="525" 
d="M460 -61l-128 -135v9q0 10 -3 16q-15 -25 -99 -25q-20 0 -51 7q-37 8 -47 18q-5 -10 -4 -25l-127 135v179q42 -44 127 -126q1 -9 2 -27v-7q54 -41 102 -41q42 0 99 37v270q0 34 -44 63q-41 26 -92 32q-12 1 -27 -3.5t-28 -9.5l-140 81v287h39q1 5 4 54q66 76 187 76
q132 0 187 -76q1 -4 1 -50q14 -5 42 -4v-66h-129q4 9 4 18q0 28 -39 46q-32 15 -64 15q-44 0 -103 -41v-211q14 -2 34 -1q31 2 34 2q67 0 114 -25q38 -20 75.5 -65.5t73.5 -90.5v-316z" />
    <glyph glyph-name="T" unicode="T" horiz-adv-x="515" 
d="M466 674h-168v-870l-130 136v732h-168v68l60 64h332q13 0 74 -64v-66z" />
    <glyph glyph-name="U" unicode="U" horiz-adv-x="538" 
d="M462 -60l-129 -136l1 7q0 10 -8 10q-17 0 -48 -8.5t-47 -8.5t-47 8.5t-47 8.5q-10 0 -8 -17l-129 136v737h42v127l88 -64v-778q38 -44 103 -44q54 0 99 40v782l87 64v-123q17 -6 43 -4v-737z" />
    <glyph glyph-name="V" unicode="V" horiz-adv-x="654" 
d="M601 673l-290 -869l-311 868h43v132q29 -22 82 -65q-2 -21 3 -64q30 -91 87 -237q76 -197 92 -240q96 267 158 469q3 11 2 33v39q19 17 87 65v-131h47z" />
    <glyph glyph-name="W" unicode="W" horiz-adv-x="912" 
d="M860 673l-290 -869l-136 369l-123 -369l-311 868h43v132q29 -22 82 -65q-2 -21 3 -64q30 -91 87 -237q76 -197 92 -240l57 174l-105 300h42v132q30 -21 83 -65q-3 -44 14 -94l32 -82q24 59 34 104q1 23 3 72q19 17 87 65v-131h47l-101 -299l66 -176q95 267 157 469
q3 11 3 33q-1 33 0 39q19 17 86 65v-131h48z" />
    <glyph glyph-name="X" unicode="X" horiz-adv-x="462" 
d="M395 676l-127 -361l115 -304l-70 -207l-115 319l-115 -319l-70 202l115 309l-128 363h43v126l85 -65v-52l70 -189l70 190v51l86 65v-128h41z" />
    <glyph glyph-name="Y" unicode="Y" horiz-adv-x="456" 
d="M392 677l-131 -369v-504l-130 128v376l-131 371h43v125l83 -64v-52l70 -188l70 188v52l85 64v-127h41z" />
    <glyph glyph-name="Z" unicode="Z" horiz-adv-x="524" 
d="M466 676l-305 -740l297 -3l-127 -129h-199l-132 132l313 735l-313 3v66l60 64h342l64 -64v-64z" />
    <glyph glyph-name="bracketleft" unicode="[" horiz-adv-x="311" 
d="M254 678h-122v-747h118l-125 -127l-125 133v734l125 133z" />
    <glyph glyph-name="backslash" unicode="\" horiz-adv-x="467" 
d="M463 -195q-64 43 -197 124q-47 126 -261 748h38v127q28 -21 82 -64q-1 1 -1 -38q0 -31 153 -424q93 -236 186 -473z" />
    <glyph glyph-name="bracketright" unicode="]" horiz-adv-x="330" 
d="M254 -63l-125 -133l-125 126h118v747h-122l125 127l129 -133v-734z" />
    <glyph glyph-name="a" unicode="a" 
d="M474 -60l-131 -136v710l-106 -168l-107 168v-710l-130 136v738h39q8 25 8 46q65 80 192 80q50 0 106 -19q66 -24 86 -62q3 -6 1 -42q13 -4 42 -4v-737zM344 527v116q-44 48 -107 48q-67 0 -106 -48v-116h213z" />
    <glyph glyph-name="b" unicode="b" horiz-adv-x="441" 
d="M367 70q0 -92 -67 -177q-71 -89 -161 -89q-34 20 -139 124v749h42v127h86q95 0 169 -89q70 -85 70 -181q0 -145 -127 -230q127 -94 127 -234zM253 536q0 54 -35 92q-32 35 -86 49v-277q52 4 86.5 43.5t34.5 92.5zM253 72q0 54 -35 92q-32 35 -86 49v-277q52 4 86.5 44
t34.5 92z" />
    <glyph glyph-name="c" unicode="c" horiz-adv-x="509" 
d="M467 675l-91 -138q1 65 -38 110t-103 45q-61 0 -106 -49v-682q37 -44 102 -44q63 0 103.5 45t37.5 109l90 -138q-20 -34 -61 -69q-65 -54 -71 -60q2 6 2 10q0 7 -7 7q-16 0 -47 -8.5t-47 -8.5q-67 0 -100 21q-4 -7 -3 -21l-128 135v731h38q8 35 8 58q72 76 191 76
q70 0 131 -34.5t99 -94.5z" />
    <glyph glyph-name="d" unicode="d" horiz-adv-x="461" 
d="M389 590l-2 -549q-1 -86 -83 -160q-78 -71 -166 -77l-138 136v737h42v127h140q55 0 131 -79.5t76 -134.5zM260 37v488q0 65 -33 109t-96 56v-772q39 1 84 40.5t45 78.5z" />
    <glyph glyph-name="e" unicode="e" horiz-adv-x="523" 
d="M483 -65l-136 -131h-211l-136 136v738l52 -1q-2 20 -9 59l40 38q32 30 37 30h289q13 0 74 -64v-66h-352v-147h352l-136 -130h-216v-462h352z" />
    <glyph glyph-name="f" unicode="f" horiz-adv-x="507" 
d="M483 527l-136 -130h-217v-593l-130 136v738h39q10 31 4 58q2 1 41 37q32 31 36 31h289q10 0 74 -64v-66h-352v-147h352z" />
    <glyph glyph-name="g" unicode="g" horiz-adv-x="533" 
d="M467 675l-91 -138q1 65 -38 110t-103 45q-61 0 -106 -49v-686q54 -40 102 -40q42 0 98 36v231q-33 10 -55 5q-37 34 -120 118h304v-368l-128 -135l1 9q0 10 -4 16q-14 -25 -98 -25q-20 0 -51 7q-36 8 -47 18q-5 -10 -3 -25l-128 135v731h38q8 27 5 58q61 76 194 76
q70 0 131 -34.5t99 -94.5z" />
    <glyph glyph-name="h" unicode="h" 
d="M474 -60l-131 -136v710l-106 -168l-107 168v-710l-130 136v737h42v127l88 -64v-213h214v213l87 64v-123q17 -6 43 -4v-737z" />
    <glyph glyph-name="i" unicode="i" horiz-adv-x="208" 
d="M130 -196l-130 137v740h43v123l87 -64v-936z" />
    <glyph glyph-name="j" unicode="j" horiz-adv-x="454" 
d="M378 -60l-138 -136h-12q-70 -2 -143 65q-70 64 -85 135l117 119v-73q0 -48 40.5 -90t88.5 -43v760h44v127l88 -64v-800z" />
    <glyph glyph-name="k" unicode="k" horiz-adv-x="435" 
d="M365 -60l-129 -136v304l-110 116v-415l-126 131v737h42v127l86 -68v-352l107 116v240l83 64v-129h47v-180l-180 -189l180 -192v-174z" />
    <glyph glyph-name="l" unicode="l" horiz-adv-x="498" 
d="M483 -65l-136 -131h-211l-136 136v737h42v127l88 -64v-805h353z" />
    <glyph glyph-name="m" unicode="m" horiz-adv-x="580" 
d="M504 -60l-132 -136v714l-118 -189l-124 189v-714l-130 136v737h43v127q39 -20 116 -61q44 -92 91 -199q52 83 92 196q40 21 119 64v-123q18 -6 43 -4v-737z" />
    <glyph glyph-name="n" unicode="n" horiz-adv-x="584" 
d="M508 -60l-129 -136v548l-249 251v-799l-130 136v738h39q2 10 4 62q20 18 85 64l250 -248v184l88 64v-123q13 -4 42 -4v-737z" />
    <glyph glyph-name="o" unicode="o" horiz-adv-x="535" 
d="M460 -61l-128 -135v9q0 10 -3 16q-14 -25 -99 -25q-20 0 -51 7q-37 8 -47 18q-5 -9 -4 -25l-128 135v735h39q0 1 5 10t5 20q0 9 -2 21q22 37 85 60q52 19 98 19q125 0 187 -76q3 -8 2 -23q-1 -28 -1 -23v-4q13 -4 42 -4v-735zM330 -48v696q-13 16 -43.5 27.5t-54.5 11.5
q-48 0 -102 -39v-692q52 -39 102 -39q25 0 50 11.5t48 23.5z" />
    <glyph glyph-name="p" unicode="p" horiz-adv-x="434" 
d="M367 534q0 -103 -65.5 -175.5t-167.5 -91.5l-8 -6v-457l-126 132v741h42v127h86q93 0 168 -90q71 -86 71 -180zM253 536q0 54 -35 92q-32 35 -86 49v-277q52 4 86.5 43.5t34.5 92.5z" />
    <glyph glyph-name="q" unicode="q" horiz-adv-x="536" 
d="M460 -61l-128 -135v9q0 10 -3 16q-14 -25 -99 -25q-20 0 -51 7q-37 8 -47 18q-5 -9 -4 -25l-128 135v735h39q3 16 4 54q70 76 187 76q59 0 93 -11q51 -16 94 -65q-1 -15 0 -29q1 -18 1 -21q13 -4 42 -4v-735zM330 47v601q-13 16 -44 27.5t-54 11.5q-47 0 -102 -39v-692
q52 -39 102 -39q7 0 20.5 2.5t19.5 3.5l-42 43v177z" />
    <glyph glyph-name="r" unicode="r" horiz-adv-x="435" 
d="M366 535q0 -81 -45 -147.5t-119 -102.5l163 -171v-174l-129 -136v304l-110 116v-415l-126 131v737h42v127h86q92 0 166 -90q72 -85 72 -179zM252 537q0 54 -35 92q-32 35 -86 49v-277q52 5 86.5 44.5t34.5 91.5z" />
    <glyph glyph-name="s" unicode="s" horiz-adv-x="525" 
d="M460 -61l-128 -135v9q0 10 -3 16q-15 -25 -99 -25q-20 0 -51 7q-37 8 -47 18q-5 -10 -4 -25l-127 135v179q42 -44 127 -126q1 -9 2 -27v-7q54 -41 102 -41q42 0 99 37v270q0 34 -44 63q-41 26 -92 32q-12 1 -27 -3.5t-28 -9.5l-140 81v287h39q1 5 4 54q66 76 187 76
q132 0 187 -76q1 -4 1 -50q14 -5 42 -4v-66h-129q4 9 4 18q0 28 -39 46q-32 15 -64 15q-44 0 -103 -41v-211q14 -2 34 -1q31 2 34 2q67 0 114 -25q38 -20 75.5 -65.5t73.5 -90.5v-316z" />
    <glyph glyph-name="t" unicode="t" horiz-adv-x="515" 
d="M466 674h-168v-870l-130 136v732h-168v68l60 64h332q13 0 74 -64v-66z" />
    <glyph glyph-name="u" unicode="u" horiz-adv-x="538" 
d="M462 -60l-129 -136l1 7q0 10 -8 10q-17 0 -48 -8.5t-47 -8.5t-47 8.5t-47 8.5q-10 0 -8 -17l-129 136v737h42v127l88 -64v-778q38 -44 103 -44q54 0 99 40v782l87 64v-123q17 -6 43 -4v-737z" />
    <glyph glyph-name="v" unicode="v" horiz-adv-x="654" 
d="M601 673l-290 -869l-311 868h43v132q29 -22 82 -65q-2 -21 3 -64q30 -91 87 -237q76 -197 92 -240q96 267 158 469q3 11 2 33v39q19 17 87 65v-131h47z" />
    <glyph glyph-name="w" unicode="w" horiz-adv-x="912" 
d="M860 673l-290 -869l-136 369l-123 -369l-311 868h43v132q29 -22 82 -65q-2 -21 3 -64q30 -91 87 -237q76 -197 92 -240l57 174l-105 300h42v132q30 -21 83 -65q-3 -44 14 -94l32 -82q24 59 34 104q1 23 3 72q19 17 87 65v-131h47l-101 -299l66 -176q95 267 157 469
q3 11 3 33q-1 33 0 39q19 17 86 65v-131h48z" />
    <glyph glyph-name="x" unicode="x" horiz-adv-x="462" 
d="M395 676l-127 -361l115 -304l-70 -207l-115 319l-115 -319l-70 202l115 309l-128 363h43v126l85 -65v-52l70 -189l70 190v51l86 65v-128h41z" />
    <glyph glyph-name="y" unicode="y" horiz-adv-x="456" 
d="M392 677l-131 -369v-504l-130 128v376l-131 371h43v125l83 -64v-52l70 -188l70 188v52l85 64v-127h41z" />
    <glyph glyph-name="z" unicode="z" horiz-adv-x="524" 
d="M466 676l-305 -740l297 -3l-127 -129h-199l-132 132l313 735l-313 3v66l60 64h342l64 -64v-64z" />
  </font>
</defs>
</svg>
